<svg width="74" height="74" viewBox="0 0 74 74" fill="none" xmlns="http://www.w3.org/2000/svg">
<rect x="0.0712891" width="73.9289" height="74" fill="#1D1D1B" style="mix-blend-mode:darken"/>
<ellipse cx="36.7843" cy="36.8195" rx="36.0629" ry="36.0976" fill="#F3F0E9"/>
<path fill-rule="evenodd" clip-rule="evenodd" d="M35.6938 0.0081956C25.9231 0.351075 17.7762 3.91029 10.7881 10.8891C6.09322 15.5777 2.98394 20.8071 1.32061 26.8121C-0.387522 32.9788 -0.440878 40.1289 1.17364 46.514C1.47197 47.6938 2.2379 49.9921 2.71755 51.1468C3.72924 53.5821 5.1865 56.1673 6.794 58.3782C9.11626 61.5723 12.4538 64.9152 15.5938 67.1924C20.8725 71.0207 26.5418 73.1743 33.0397 73.8195C36.0923 74.1227 39.566 74.0414 42.6529 73.5947C50.5917 72.4459 57.5502 68.8097 63.4894 62.7063C69.8465 56.1737 73.2755 48.5272 73.8712 39.5562C73.9486 38.3898 73.948 35.4186 73.87 34.2673C73.3199 26.1439 70.4896 19.2142 65.2178 13.0835C64.4152 12.15 62.671 10.3652 61.7215 9.50574C55.3857 3.77025 48.0343 0.632625 39.6575 0.0889358C38.6847 0.0257502 36.4752 -0.0192055 35.6938 0.0081956ZM6.0076 24.1842V24.5382L6.25088 24.6033C6.38475 24.6391 6.5555 24.7181 6.63039 24.7788L6.76662 24.8892L6.79473 29.803L6.82284 34.7169L7.16018 34.7588C8.12251 34.8784 8.96002 35.7245 9.10052 36.7191C9.19318 37.375 8.9892 38.074 8.56179 38.5652C8.16878 39.0169 7.50129 39.3572 7.00557 39.3586L6.79473 39.3592V41.6859C6.79473 44.0095 6.79456 44.0129 6.66738 44.2038C6.57725 44.3391 6.46233 44.4196 6.2741 44.4794L6.00816 44.5638L6.00788 44.9154L6.0076 45.2671H9.04368H12.0798V44.9013V44.5356L11.897 44.5353C11.5956 44.5348 11.2831 44.4222 11.1143 44.2533L10.9553 44.0942V37.1692C10.9553 33.3605 10.9742 30.2445 10.9975 30.2449C11.0207 30.2451 12.8381 33.619 15.0363 37.7422C17.2345 41.8654 19.0644 45.2389 19.1027 45.2389C19.1411 45.2389 21.001 41.8893 23.2359 37.7952C25.4708 33.7011 27.3284 30.3223 27.3641 30.2866C27.4616 30.189 27.4552 43.9457 27.3576 44.1387C27.2607 44.3304 26.9851 44.4773 26.6472 44.5173L26.3606 44.5513V44.9092V45.2671H29.5372H32.7139V44.9013C32.7139 44.5702 32.703 44.5356 32.5986 44.5356C32.4318 44.5356 32.1795 44.3919 32.0442 44.2197L31.9268 44.0703V34.5085V24.9467L32.0895 24.7839C32.1918 24.6815 32.3379 24.6073 32.483 24.5841L32.7139 24.5471V24.1886V23.8301H28.9469H25.1799V24.1859V24.5417L25.3902 24.5938C25.6504 24.6583 25.7672 24.8655 25.7156 25.1711C25.6961 25.2866 25.5486 25.6382 25.3879 25.9526C24.8199 27.0632 19.304 36.8727 19.268 36.8362C19.2031 36.7705 13.3654 26.1245 13.1404 25.6617C12.8361 25.0355 12.8486 24.8556 13.2089 24.6716C13.3276 24.6111 13.4636 24.5615 13.5112 24.5615C13.5803 24.5615 13.5978 24.4876 13.5978 24.1958V23.8301H9.8027H6.0076V24.1842ZM43.0591 24.1825V24.535L43.3902 24.6814C43.8081 24.8663 43.9316 25.0433 43.9274 25.4517C43.9247 25.7199 43.8664 25.8694 43.4327 26.72C43.1623 27.2503 42.1502 29.3521 41.1835 31.3907L39.4259 35.097L39.7254 35.3804C40.8109 36.4078 40.6318 38.1922 39.3616 39.0054C38.9158 39.2908 38.5792 39.373 37.9496 39.3504L37.4144 39.3311L36.4782 41.3004C35.9633 42.3835 35.4212 43.4681 35.2734 43.7106C34.9948 44.1677 34.6921 44.4434 34.3973 44.5082C34.2353 44.5438 34.2319 44.5518 34.2319 44.9058V45.2671H37.1275H40.023V44.9087V44.5503L39.7578 44.5203C39.469 44.4878 39.2359 44.2903 39.2359 44.0782C39.2359 43.7977 39.5834 42.9847 40.3211 41.5395L41.1182 39.9782H46.0971H51.076L51.9528 41.7083C52.8619 43.502 53.0176 43.9097 52.9011 44.1909C52.8383 44.3426 52.5366 44.5356 52.3622 44.5356C52.2982 44.5356 52.2798 44.6175 52.2798 44.9013V45.2671H55.85H59.4202V44.9057V44.5443L58.9622 44.3008C58.7015 44.1622 58.4364 43.9726 58.3467 43.8604C58.1907 43.6654 49.4563 26.62 49.2071 26.0244C49.0381 25.6204 49.0294 25.1412 49.1872 24.9403C49.249 24.8618 49.4387 24.7398 49.6089 24.6692L49.9184 24.5408V24.1855V23.8301H46.4887H43.0591V24.1825ZM60.9945 24.1958C60.9945 24.5572 60.9963 24.5615 61.1491 24.5619C61.4006 24.5624 61.7143 24.67 61.8799 24.8125L62.0346 24.9456L62.0627 29.8313L62.0908 34.7169L62.4282 34.7588C63.3905 34.8784 64.228 35.7245 64.3685 36.7191C64.4612 37.375 64.2572 38.074 63.8298 38.5652C63.4368 39.0169 62.7693 39.3572 62.2736 39.3586L62.0627 39.3592V41.7098C62.0627 44.3464 62.0803 44.2313 61.6476 44.4279C61.5203 44.4858 61.3213 44.5337 61.2053 44.5344L60.9945 44.5356V44.9013V45.2671H64.3679H67.7413V44.9092V44.5513L67.4531 44.5171C67.1272 44.4785 66.9447 44.378 66.8004 44.1575C66.7066 44.0143 66.7012 43.4894 66.7012 34.5486C66.7012 25.617 66.7067 25.0827 66.8001 24.94C66.9249 24.7495 67.1618 24.6257 67.4873 24.5811L67.7413 24.5462V24.1882V23.8301H64.3679H60.9945V24.1958ZM44.8446 31.9947C43.3044 35.0321 42.3844 36.8706 42.3844 36.9112C42.3844 36.927 44.0063 36.9398 45.9887 36.9398C48.8501 36.9398 49.5871 36.9253 49.5643 36.8695C49.4866 36.6797 46.2993 29.6354 46.2385 29.519C46.1729 29.3937 46.0782 29.562 44.8446 31.9947Z" fill="#1D1D1B" style="mix-blend-mode:darken"/>
</svg>
