<svg width="140" height="31" viewBox="0 0 140 31" fill="none" xmlns="http://www.w3.org/2000/svg">
<path d="M84.2347 15.6125C84.2347 23.694 77.6911 30.2453 69.6193 30.2453C61.5474 30.2453 55.0039 23.694 55.0039 15.6125C55.0039 7.53105 61.5474 0.979736 69.6193 0.979736C77.6911 0.979736 84.2347 7.53105 84.2347 15.6125ZM57.5643 15.6125C57.5643 22.2782 62.9615 27.6819 69.6193 27.6819C76.2771 27.6819 81.6743 22.2782 81.6743 15.6125C81.6743 8.94678 76.2771 3.54315 69.6193 3.54315C62.9615 3.54315 57.5643 8.94678 57.5643 15.6125Z" fill="#B1AFA8"/>
<path d="M29.2308 15.6125C29.2308 23.694 22.6872 30.2453 14.6154 30.2453C6.54353 30.2453 0 23.694 0 15.6125C0 7.53105 6.54353 0.979736 14.6154 0.979736C22.6872 0.979736 29.2308 7.53105 29.2308 15.6125ZM2.56036 15.6125C2.56036 22.2782 7.95758 27.6819 14.6154 27.6819C21.2732 27.6819 26.6704 22.2782 26.6704 15.6125C26.6704 8.94678 21.2732 3.54315 14.6154 3.54315C7.95758 3.54315 2.56036 8.94678 2.56036 15.6125Z" fill="#B1AFA8"/>
</svg>
